<?xml version="1.0" encoding="UTF-8"?><svg id="a" xmlns="http://www.w3.org/2000/svg" viewBox="0 0 148.5 168.63"><defs><style>.b{fill:#fff;}.c{fill:#003162;}.d{fill:#247ba0;}.e{fill:#d5d5d5;}</style></defs><rect class="d" x="26.56" y="63.88" width="96.28" height="80.53"/><g><g><path class="c" d="M138.66,13.16H9.84C4.41,13.16,0,17.56,0,23V57.05H148.5V23c0-5.43-4.41-9.83-9.84-9.83ZM22.96,35.65c-2.55,0-4.61-2.06-4.61-4.61s2.06-4.62,4.61-4.62,4.62,2.07,4.62,4.62-2.07,4.61-4.62,4.61Zm22.47,0c-2.56,0-4.61-2.06-4.61-4.61s2.06-4.62,4.61-4.62,4.61,2.07,4.61,4.62-2.06,4.61-4.61,4.61Zm22.26,0c-2.55,0-4.61-2.06-4.61-4.61s2.06-4.62,4.61-4.62,4.62,2.07,4.62,4.62-2.06,4.61-4.62,4.61Zm23.03,0c-2.55,0-4.62-2.06-4.62-4.61s2.06-4.62,4.62-4.62,4.62,2.07,4.62,4.62-2.07,4.61-4.62,4.61Zm23.04,0c-2.54,0-4.61-2.06-4.61-4.61s2.07-4.62,4.61-4.62,4.62,2.07,4.62,4.62-2.07,4.61-4.62,4.61Z"/><path class="e" d="M113.42,32.75c-.44,0-.87-.15-1.23-.45-.16-.14-3.92-3.4-5.01-10.33-1.21-7.67,.1-14.41,3.58-18.49,1.91-2.24,4.42-3.48,7.05-3.48,9.11,0,10.52,12.59,10.57,13.12h-3.83c0-.1-1.07-9.3-6.74-9.3-1.91,0-3.32,1.17-4.15,2.14-2.72,3.19-3.73,8.94-2.71,15.4,.86,5.45,3.6,7.93,3.72,8.03,.79,.7,.88,1.9,.19,2.69-.38,.44-.91,.66-1.45,.66Z"/></g><path class="b" d="M144.31,57.05H0v101.74c0,5.44,4.41,9.85,9.84,9.85H138.66c5.43,0,9.84-4.41,9.84-9.85V57.05h-4.19Zm-76.39,78.97H34.55v-7.59c2.4-2.27,4.66-4.46,6.79-6.54,2.13-2.08,4.21-4.25,6.25-6.5,4.12-4.53,6.92-8.16,8.43-10.88,1.5-2.72,2.25-5.54,2.25-8.45,0-1.5-.24-2.82-.71-3.96-.48-1.14-1.12-2.08-1.95-2.83-.84-.72-1.82-1.27-2.94-1.64-1.12-.36-2.34-.55-3.67-.55s-2.59,.17-3.9,.49c-1.32,.33-2.59,.73-3.8,1.22-1.02,.41-2,.91-2.94,1.49-.94,.58-1.71,1.08-2.29,1.49h-.4v-7.7c1.5-.74,3.59-1.48,6.26-2.19,2.68-.72,5.21-1.07,7.61-1.07,5.04,0,8.98,1.34,11.84,4.01,2.86,2.68,4.29,6.3,4.29,10.88,0,2.11-.25,4.06-.74,5.84-.5,1.8-1.18,3.45-2.05,4.98-.89,1.57-1.97,3.14-3.23,4.69-1.25,1.54-2.59,3.07-3.99,4.57-2.28,2.47-4.81,5.04-7.61,7.7-2.8,2.67-5.03,4.77-6.7,6.32h26.59v6.21Zm38.73-9.95c-.84,2.22-2.01,4.15-3.5,5.77-1.53,1.65-3.42,2.94-5.69,3.89-2.27,.94-4.8,1.41-7.61,1.41-2.59,0-5.14-.29-7.65-.85-2.5-.57-4.68-1.31-6.52-2.24v-7.66h.51c.56,.41,1.36,.88,2.4,1.4,1.04,.51,2.19,1.01,3.45,1.47,1.43,.51,2.73,.9,3.92,1.18,1.19,.28,2.52,.42,4,.42s2.87-.26,4.25-.78c1.38-.52,2.56-1.36,3.56-2.52,.9-1.06,1.58-2.31,2.05-3.74,.47-1.42,.71-3.11,.71-5.04s-.26-3.48-.78-4.72c-.52-1.24-1.28-2.25-2.27-3.05-1.04-.92-2.32-1.57-3.83-1.94-1.51-.37-3.2-.56-5.07-.56-1.96,0-3.93,.15-5.92,.46-1.99,.3-3.57,.59-4.76,.85v-27.86h29.68v6.36h-22.66v14.38c.87-.1,1.73-.17,2.58-.22,.85-.05,1.62-.07,2.33-.07,2.76,0,5.09,.23,7.01,.69,1.91,.46,3.75,1.35,5.52,2.69,1.79,1.35,3.17,3.05,4.12,5.08,.96,2.03,1.43,4.69,1.43,7.96,0,2.61-.42,5.04-1.25,7.26Z"/><path class="e" d="M22.61,32.75c-.44,0-.87-.15-1.23-.45-.16-.14-3.91-3.4-5.01-10.33-1.2-7.67,.1-14.41,3.59-18.49,1.92-2.24,4.42-3.48,7.06-3.48,9.1,0,10.52,12.59,10.57,13.12h-3.83c0-.1-1.07-9.3-6.74-9.3-1.92,0-3.32,1.17-4.15,2.14-2.73,3.19-3.73,8.94-2.71,15.4,.86,5.45,3.6,7.93,3.72,8.03,.79,.7,.87,1.9,.19,2.69-.38,.44-.92,.66-1.45,.66Z"/><path class="e" d="M45.08,32.75c-.44,0-.87-.15-1.23-.45-.16-.14-3.91-3.4-5.01-10.33-1.21-7.67,.1-14.41,3.59-18.49,1.91-2.24,4.42-3.48,7.06-3.48,9.1,0,10.51,12.59,10.57,13.12h-3.83c0-.1-1.07-9.3-6.74-9.3-1.92,0-3.32,1.17-4.16,2.14-2.72,3.19-3.73,8.94-2.71,15.4,.86,5.45,3.61,7.93,3.72,8.03,.79,.7,.87,1.9,.18,2.69-.38,.44-.91,.66-1.44,.66Z"/><path class="e" d="M67.35,32.75c-.44,0-.88-.15-1.23-.45-.16-.14-3.91-3.4-5.01-10.33-1.21-7.67,.1-14.41,3.59-18.49,1.91-2.24,4.42-3.48,7.05-3.48,9.11,0,10.51,12.59,10.57,13.12h-3.83c0-.1-1.07-9.3-6.74-9.3-1.92,0-3.32,1.17-4.15,2.14-2.72,3.19-3.73,8.94-2.71,15.4,.86,5.45,3.61,7.93,3.72,8.03,.78,.7,.87,1.9,.19,2.69-.38,.44-.91,.66-1.44,.66Z"/><path class="e" d="M90.37,32.75c-.44,0-.87-.15-1.23-.45-.16-.14-3.91-3.4-5-10.33-1.21-7.67,.09-14.41,3.58-18.49,1.91-2.24,4.42-3.48,7.05-3.48,9.11,0,10.51,12.59,10.57,13.12h-3.83c0-.1-1.07-9.3-6.74-9.3-1.92,0-3.32,1.17-4.15,2.14-2.73,3.19-3.73,8.94-2.71,15.4,.86,5.45,3.6,7.93,3.72,8.03,.78,.7,.87,1.9,.18,2.69-.38,.44-.91,.66-1.45,.66Z"/></g></svg>