<?xml version="1.0" encoding="UTF-8"?><svg id="a" xmlns="http://www.w3.org/2000/svg" viewBox="0 0 156.2 164.76"><defs><style>.b{fill:#fff;}.c{fill:#1f487e;}.d{fill:#003162;}.e{fill:#247ba0;}</style></defs><g><rect class="e" x="48.74" y="103.84" width="29.36" height="60.92"/><polygon class="d" points="78.1 118.2 57.65 110.75 57.65 69.65 78.1 69.65 78.1 109.47 78.1 118.2"/><polygon class="b" points="75.29 132.02 65.47 152.39 73.47 164.76 78.1 164.76 78.1 109.47 67.87 124.75 75.29 132.02"/><polygon class="e" points="53.65 98.2 78.1 109.47 67.87 127.84 48.74 103.84 53.65 98.2"/><path class="c" d="M0,164.76H78.1l-35.77-50.74h-7.32C0,114.02,0,164.76,0,164.76Z"/><polygon class="c" points="34.55 113.02 48.74 103.84 78.1 164.76 45.1 137.66 52.19 127.84 39.1 129.48 34.55 113.02"/></g><g><rect class="e" x="78.1" y="103.84" width="29.36" height="60.92"/><polygon class="d" points="78.1 118.2 98.55 110.75 98.55 69.65 78.1 69.65 78.1 109.47 78.1 118.2"/><polygon class="b" points="80.91 132.02 90.73 152.39 82.73 164.76 78.1 164.76 78.1 109.47 88.32 124.75 80.91 132.02"/><polygon class="e" points="102.55 98.2 78.1 109.47 88.32 127.84 107.46 103.84 102.55 98.2"/><path class="c" d="M156.2,164.76H78.1l35.78-50.74h7.32c32.2,0,35.01,50.74,35.01,50.74Z"/><polygon class="c" points="121.65 113.02 107.46 103.84 78.1 164.76 111.1 137.66 104.01 127.84 117.1 129.48 121.65 113.02"/></g><path class="d" d="M47.86,40.64l-.74-.32c-4.04-1.73-5.03-1.96-4.74,7.14,0,0-.05,16.37,6.03,17.18,.57,2.62,1.36,5.09,2.5,7.17,5.98,10.88,16.46,23.38,27.2,23.38V16.64c-33.27-4.09-27.03,10.25-30.24,24Z"/><path class="d" d="M108.34,40.64l.74-.32c4.04-1.73,5.03-1.96,4.74,7.14,0,0,.05,16.37-6.03,17.18-.57,2.62-1.36,5.09-2.5,7.17-5.98,10.88-16.46,23.38-27.2,23.38V16.64c33.27-4.09,27.03,10.25,30.24,24Z"/><path class="d" d="M71.46,0c-3.6,0-7.2,.51-10.55,1.81-22.58,8.74-13.73,39.26-13.05,47.47,.17,2.1,1.2-12.68,2.97-20.64,1.11-4.96,7.69-6.02,11.91-3.18,6.36,4.27,15.36,3.18,15.36,3.18V0h-6.64Z"/><path class="d" d="M84.74,0c3.6,0,7.2,.51,10.55,1.81,22.58,8.74,13.73,39.26,13.05,47.47-.17,2.1-1.2-12.68-2.97-20.64-1.11-4.96-7.69-6.02-11.91-3.18-6.36,4.27-15.36,3.18-15.36,3.18V0h6.64Z"/></svg>