<?xml version="1.0" encoding="UTF-8"?><svg id="a" xmlns="http://www.w3.org/2000/svg" viewBox="0 0 139.76 185.81"><defs><style>.b{fill:#fff;}.c{fill:#1f487e;}.d{fill:#003162;}.e{fill:#247ba0;}</style></defs><rect class="b" x="4.58" y="137.31" width="49.55" height="44.69" rx="22.34" ry="22.34"/><rect class="c" x="47.68" y="8.02" width="58.81" height="12.33"/><rect class="d" x="62.29" y="78.24" width="62.33" height="62.33"/><g><path class="c" d="M133.12,68.65H47.15v76.2h92.62V68.65h-6.64Zm-54.63,13.72l11.32,19.6h-5.58v19.06h-11.49v-19.06h-5.57l11.31-19.6Zm37.4,51.14h-48.71v-9h48.71v9Zm-5.58-31.27v19.06h-11.49v-19.06h-5.57l11.32-19.6,11.32,19.6h-5.58Z"/><g><g><path class="d" d="M23.66,144.2c2.04-.88,4.29-1.37,6.65-1.37,5.41,0,10.21,2.56,13.29,6.53V0H0V14.06H23.66V144.2Z"/><path class="d" d="M45.77,153c.88,2.04,1.38,4.29,1.38,6.66s-.49,4.61-1.37,6.65h93.98v-13.31H45.77Z"/></g><path class="e" d="M35.14,133.49c-.85,0-1.69,.04-2.51,.12-.76-.07-1.54-.11-2.32-.11-14.44,0-26.16,11.71-26.16,26.15s11.71,26.15,26.16,26.15c.83,0,1.64-.04,2.45-.12,.79,.07,1.58,.11,2.38,.11,14.44,0,26.15-11.72,26.15-26.16s-11.71-26.16-26.15-26.16Zm-4.83,43c-9.3,0-16.83-7.53-16.83-16.83s7.53-16.84,16.83-16.84,16.83,7.54,16.83,16.84-7.54,16.83-16.83,16.83Z"/></g><polygon class="e" points="109.83 8.03 89.8 8.03 87.06 18.71 84.31 16.71 82.51 18.71 80.57 16.85 78.39 18.71 76.2 16.85 74.26 18.71 72.46 16.71 69.7 18.71 66.97 8.03 51.79 8.03 46.93 8.03 46.93 63.77 51.79 63.77 109.83 63.77 114.69 63.77 114.69 8.03 109.83 8.03"/></g></svg>