<?xml version="1.0" encoding="UTF-8"?><svg id="a" xmlns="http://www.w3.org/2000/svg" viewBox="0 0 177.69 100.36"><defs><style>.b{fill:#1f487e;}.c{fill:#313638;}</style></defs><polygon class="c" points="27.51 45.34 27.5 45.35 27.5 45.35 27.51 45.34"/><path class="c" d="M27.5,45.35c1.54-1.35,2.72-2.93,3.5-4.73,.78-1.8,1.17-3.79,1.17-5.93,0-3.58-1.07-6.76-3.24-9.29h-.01c-1.55-1.8-3.48-3.14-5.72-4.01,.72-.7,1.34-1.49,1.82-2.36,.96-1.72,1.42-3.73,1.42-5.94,0-1.91-.3-3.66-.94-5.24-.64-1.57-1.61-2.95-2.89-4.07h0c-1.2-1.06-2.62-1.85-4.2-2.36-1.58-.52-3.33-.76-5.24-.76H.55V49.44h15.78c4.32,.01,8.14-1.37,11.18-4.09ZM20.41,10.2c.34,.8,.53,1.75,.53,2.88,0,1.09-.18,2.02-.51,2.84-.33,.82-.81,1.52-1.49,2.16-1.37,1.28-2.99,1.91-5.19,1.92H6V6.15h7.37c2.24,.01,3.98,.65,5.48,1.96h.02c.7,.61,1.19,1.28,1.54,2.09Zm5.56,20.72c.5,1.09,.75,2.33,.76,3.76,0,1.41-.25,2.64-.74,3.72-.49,1.08-1.21,2.04-2.23,2.9h-.01c-2.02,1.75-4.38,2.61-7.35,2.62H6V25.51h10.4c3.03,0,5.38,.84,7.29,2.48h.02c1.03,.88,1.77,1.84,2.27,2.93Z"/><polygon class="c" points="42.01 49.44 42.01 .64 36.56 .64 36.56 49.44 38 49.44 42.01 49.44"/><polygon points="87.66 42.62 87.66 42.62 87.66 42.62 87.66 42.62"/><path class="c" d="M87.66,42.62c4.32-4.54,6.52-10.24,6.5-16.81v-1.44h-20.95v5.51h14.94c-.63,3.16-2.11,6.02-4.53,8.65h0c-1.84,2.03-3.95,3.52-6.36,4.52-2.41,1-5.13,1.51-8.21,1.51-5.73-.01-10.33-1.82-14.1-5.5-1.84-1.84-3.2-3.9-4.11-6.22-.91-2.32-1.38-4.91-1.38-7.8,.01-5.73,1.84-10.3,5.56-14.03,3.74-3.72,8.3-5.55,14.03-5.56,3.53,0,6.59,.67,9.25,1.98,2.66,1.31,4.94,3.26,6.88,5.92l.86,1.18,4.43-3.36-.86-1.14c-2.48-3.31-5.46-5.84-8.91-7.52C77.27,.83,73.36,0,69.06,0c-7.17-.01-13.28,2.38-17.99,7.11-2.34,2.34-4.11,5.03-5.29,8.03-1.18,3-1.76,6.31-1.75,9.9,0,3.62,.58,6.97,1.75,9.99,1.17,3.03,2.95,5.73,5.29,8.07,2.32,2.32,5.01,4.08,8.02,5.24,3.01,1.17,6.35,1.74,9.97,1.74,3.8,0,7.27-.61,10.39-1.85,3.12-1.24,5.87-3.12,8.21-5.6Z"/><polygon class="c" points="21.51 72.74 6.23 53.85 0 53.85 0 99.83 6.58 99.83 6.58 64.06 20.88 81.83 22.1 81.83 36.23 64.06 36.23 99.83 42.85 99.83 42.85 53.85 36.7 53.85 21.51 72.74"/><polygon class="c" points="59.34 79.62 78.16 79.62 78.16 73.73 59.34 73.73 59.34 59.71 78.82 59.71 78.82 53.85 52.76 53.85 52.76 99.76 79.45 99.76 79.45 93.91 59.34 93.91 59.34 79.62"/><polygon class="c" points="122.99 89.56 91.99 53.85 86.65 53.85 86.65 99.83 92.84 99.83 92.84 64.42 123.58 99.83 129.24 99.83 129.24 53.85 122.99 53.85 122.99 89.56"/><path class="c" d="M171.07,79.95c0,3.62-.29,6.18-.86,7.67-.57,1.49-1.5,2.79-2.8,3.88-2.46,2.04-5.64,3.06-9.54,3.06-2.74,0-5.12-.51-7.14-1.53-2.02-1.02-3.52-2.37-4.51-4.06-.99-1.69-1.48-4.7-1.48-9.02v-26.1h-6.61v26.03c0,3.71,.25,6.43,.74,8.16,.49,1.73,1.12,3.2,1.88,4.39,.76,1.2,1.68,2.28,2.78,3.24,3.62,3.12,8.42,4.67,14.41,4.67s10.64-1.57,14.28-4.71c1.1-.94,2.02-2.01,2.78-3.21,.76-1.2,1.39-2.69,1.91-4.49,.52-1.8,.77-4.46,.77-8v-26.1h-6.61v26.1Z"/><rect class="b" x="105.56" y="8.64" width="72.13" height="3.91" rx="1.92" ry="1.92"/><rect class="b" x="105.56" y="23.08" width="72.13" height="3.91" rx="1.92" ry="1.92"/><rect class="b" x="105.56" y="37.53" width="72.13" height="3.91" rx="1.92" ry="1.92"/></svg>