<?xml version="1.0" encoding="utf-8"?>
<!-- Generator: Adobe Illustrator 26.2.1, SVG Export Plug-In . SVG Version: 6.00 Build 0)  -->
<svg version="1.1" id="a" xmlns="http://www.w3.org/2000/svg" xmlns:xlink="http://www.w3.org/1999/xlink" x="0px" y="0px"
	 viewBox="0 0 177.7 100.4" style="enable-background:new 0 0 177.7 100.4;" xml:space="preserve">
<style type="text/css">
	.st0{fill:#313638;}
	.st1{fill:#F55951;}
</style>
<polygon class="st0" points="27.5,45.3 27.5,45.3 27.5,45.3 "/>
<path class="st0" d="M27.5,45.3c1.5-1.3,2.7-2.9,3.5-4.7s1.2-3.8,1.2-5.9c0-3.6-1.1-6.8-3.2-9.3h0c-1.5-1.8-3.5-3.1-5.7-4
	c0.7-0.7,1.3-1.5,1.8-2.4c1-1.7,1.4-3.7,1.4-5.9c0-1.9-0.3-3.7-0.9-5.2c-0.6-1.6-1.6-2.9-2.9-4.1l0,0c-1.2-1.1-2.6-1.9-4.2-2.4
	c-1.6-0.5-3.3-0.8-5.2-0.8H0.6v48.8h15.8C20.6,49.4,24.5,48.1,27.5,45.3L27.5,45.3z M20.4,10.2c0.3,0.8,0.5,1.8,0.5,2.9
	c0,1.1-0.2,2-0.5,2.8s-0.8,1.5-1.5,2.2c-1.4,1.3-3,1.9-5.2,1.9H6V6.2h7.4c2.2,0,4,0.7,5.5,2h0C19.6,8.7,20.1,9.4,20.4,10.2z
	 M26,30.9c0.5,1.1,0.8,2.3,0.8,3.8c0,1.4-0.2,2.6-0.7,3.7s-1.2,2-2.2,2.9h0c-2,1.8-4.4,2.6-7.4,2.6H6V25.5h10.4c3,0,5.4,0.8,7.3,2.5
	h0C24.7,28.9,25.5,29.8,26,30.9L26,30.9z"/>
<polygon class="st0" points="42,49.4 42,0.6 36.6,0.6 36.6,49.4 38,49.4 "/>
<polygon points="87.7,42.6 87.7,42.6 87.7,42.6 "/>
<path class="st0" d="M87.7,42.6c4.3-4.5,6.5-10.2,6.5-16.8v-1.4H73.2v5.5h14.9c-0.6,3.2-2.1,6-4.5,8.6l0,0c-1.8,2-3.9,3.5-6.4,4.5
	s-5.1,1.5-8.2,1.5c-5.7,0-10.3-1.8-14.1-5.5c-1.8-1.8-3.2-3.9-4.1-6.2s-1.4-4.9-1.4-7.8c0-5.7,1.8-10.3,5.6-14
	c3.7-3.7,8.3-5.6,14-5.6c3.5,0,6.6,0.7,9.2,2c2.7,1.3,4.9,3.3,6.9,5.9l0.9,1.2l4.4-3.4L89.6,10c-2.5-3.3-5.5-5.8-8.9-7.5
	C77.3,0.8,73.4,0,69.1,0c-7.2,0-13.3,2.4-18,7.1c-2.3,2.3-4.1,5-5.3,8S44,21.4,44,25c0,3.6,0.6,7,1.8,10c1.2,3,3,5.7,5.3,8.1
	c2.3,2.3,5,4.1,8,5.2c3,1.2,6.4,1.7,10,1.7c3.8,0,7.3-0.6,10.4-1.8C82.6,47,85.3,45.1,87.7,42.6L87.7,42.6z"/>
<polygon class="st0" points="21.5,72.7 6.2,53.8 0,53.8 0,99.8 6.6,99.8 6.6,64.1 20.9,81.8 22.1,81.8 36.2,64.1 36.2,99.8 
	42.8,99.8 42.8,53.8 36.7,53.8 "/>
<polygon class="st0" points="59.3,79.6 78.2,79.6 78.2,73.7 59.3,73.7 59.3,59.7 78.8,59.7 78.8,53.8 52.8,53.8 52.8,99.8 
	79.4,99.8 79.4,93.9 59.3,93.9 "/>
<polygon class="st0" points="123,89.6 92,53.8 86.7,53.8 86.7,99.8 92.8,99.8 92.8,64.4 123.6,99.8 129.2,99.8 129.2,53.8 123,53.8 
	"/>
<path class="st0" d="M171.1,79.9c0,3.6-0.3,6.2-0.9,7.7s-1.5,2.8-2.8,3.9c-2.5,2-5.6,3.1-9.5,3.1c-2.7,0-5.1-0.5-7.1-1.5
	s-3.5-2.4-4.5-4.1c-1-1.7-1.5-4.7-1.5-9V53.8h-6.6v26c0,3.7,0.2,6.4,0.7,8.2c0.5,1.7,1.1,3.2,1.9,4.4c0.8,1.2,1.7,2.3,2.8,3.2
	c3.6,3.1,8.4,4.7,14.4,4.7s10.6-1.6,14.3-4.7c1.1-0.9,2-2,2.8-3.2s1.4-2.7,1.9-4.5c0.5-1.8,0.8-4.5,0.8-8V53.8h-6.6L171.1,79.9
	L171.1,79.9z"/>
<path class="st1" d="M107.5,8.6h68.3c1.1,0,1.9,0.9,1.9,1.9v0.1c0,1.1-0.9,1.9-1.9,1.9h-68.3c-1.1,0-1.9-0.9-1.9-1.9v-0.1
	C105.6,9.5,106.4,8.6,107.5,8.6z"/>
<path class="st1" d="M107.5,23.1h68.3c1.1,0,1.9,0.9,1.9,1.9v0.1c0,1.1-0.9,1.9-1.9,1.9h-68.3c-1.1,0-1.9-0.9-1.9-1.9V25
	C105.6,23.9,106.4,23.1,107.5,23.1z"/>
<path class="st1" d="M107.5,37.5h68.3c1.1,0,1.9,0.9,1.9,1.9v0.1c0,1.1-0.9,1.9-1.9,1.9h-68.3c-1.1,0-1.9-0.9-1.9-1.9v-0.1
	C105.6,38.4,106.4,37.5,107.5,37.5z"/>
</svg>
