<?xml version="1.0" encoding="UTF-8"?><svg id="a" xmlns="http://www.w3.org/2000/svg" viewBox="0 0 104.81 172.84"><defs><style>.b{fill:#fff;}.c{fill:#1f487e;}.d{fill:#003162;}.e{fill:#247ba0;}</style></defs><rect class="e" x="8.87" y="15.27" width="88.58" height="131.24"/><rect class="e" x="8.87" y="150.28" width="88.58" height="21.3"/><rect class="c" x="8.87" y="1.27" width="88.58" height="12.33"/><path class="d" d="M99.35,0H5.47C2.44,0,0,2.98,0,6.65V166.19c0,3.67,2.44,6.65,5.47,6.65H99.35c3.03,0,5.47-2.98,5.47-6.65V6.65c0-3.67-2.43-6.65-5.47-6.65ZM40.48,4.42h22.68c1.69,0,3.06,1.28,3.06,2.84,0,.36-.08,.69-.21,.99-.43,1.08-1.54,1.85-2.85,1.85h-22.68c-1.3,0-2.41-.76-2.85-1.85-.13-.3-.21-.63-.21-.99,0-1.56,1.37-2.84,3.06-2.84Zm19.96,158.91c-.66,3.86-3.98,6.82-8.04,6.82s-7.38-2.96-8.03-6.82c-.07-.44-.12-.89-.12-1.36,0-4.51,3.65-8.17,8.15-8.17s8.17,3.66,8.17,8.17c0,.46-.05,.92-.12,1.36Zm34.34-17.22H8.87V15.6H94.78V146.11Z"/><g><path class="b" d="M77.32,72.98c-.33-.72-.92-1.26-1.65-1.53-.46-.17-.93-.25-1.37-.25-.05,0-.1,.01-.15,.02-.03,0-.05-.02-.08-.02H41.55l-.92-8.37v-.09l-.03-.1c-.3-1.1-1.46-1.83-2.9-1.83-.07,0-.14,0-.21,.01-.11-.01-.2-.07-.3-.07H19.31c-1.55,0-2.8,1.38-2.8,3.09s1.25,3.08,2.8,3.08h15.41l2.89,26.4c.06,.52,.21,.99,.42,1.42,.36,1.17,1.29,2,2.43,2h27.62c1.19,0,2.13-.9,2.45-2.15l6.86-18.92c.34-.92,.32-1.87-.07-2.68Zm-19.2,4.33v13.31h-5.42v-13.31h5.42Zm-15.9,0h5.5v13.31h-4.04l-1.46-13.31Zm23.25,13.31h-2.38v-13.31h7.2l-4.82,13.31Z"/><path class="b" d="M45.35,99.81c-3.4,0-6.15,2.75-6.15,6.15s2.75,6.14,6.15,6.14,6.14-2.75,6.14-6.14-2.75-6.15-6.14-6.15Z"/><path class="b" d="M62.21,99.81c-3.4,0-6.15,2.75-6.15,6.15s2.75,6.14,6.15,6.14,6.14-2.75,6.14-6.14-2.75-6.15-6.14-6.15Z"/></g></svg>