<?xml version="1.0" encoding="UTF-8"?><svg id="a" xmlns="http://www.w3.org/2000/svg" viewBox="0 0 158.8 158.45"><defs><style>.b{fill:#fff;}.c{fill:#1f487e;}.d{fill:#003162;}.e{fill:#247ba0;}.f{fill:#5d153b;}</style></defs><path class="b" d="M138.91,45.96c-7.92-3.19-16.38-2.96-23.72,0,.16-1.58,.26-3.16,.26-4.73C115.45,18.46,96.99,0,74.23,0S33.01,18.46,33.01,41.22c0,1.92,.12,3.82,.32,5.72-4.1-.2-8.31,.39-12.41,1.88C4.42,54.83-4.08,73.06,1.92,89.55c8.02,22.02,34.93,35.53,44.58,35.39-.03,.06-.04,.12-.03,.19,.02,.2,.19,.34,.38,.34,.02,0,.03,0,.04,0,.07,0,.13-.03,.2-.03-.29,.96-.88,3.1-.85,4.49,.05,1.83,1.38,1.28,2.26,.34,.89-.94,1.18,.19,2.13-.22,.94-.41,.67-1.86,1.98-1.54,.08,.1,.15,.21,.23,.32,.88,1.31,1.1,3.01,.92,4.53-.23-.07-.45-.13-.68-.15-1.47-.18-2.73,.51-3.31,1.8-.41,.93-.08,1.94,.82,2.45,.79,.45,1.99,.45,2.76-.63,.41-.57,.76-1.39,.99-2.34,.65,.45,1.19,1.18,1.36,2.19,.19,1.13-.25,2.48-.67,3.78-.76,2.35-1.62,5.01,1.22,6.72,4.61,2.79,6.2,5.6,4.99,8.87-.07,.2,.03,.42,.22,.49,.04,.02,.09,.02,.14,.02,.15,0,.3-.09,.36-.25,1.34-3.62-.39-6.83-5.31-9.79-2.32-1.4-1.66-3.45-.89-5.83,.45-1.39,.92-2.83,.7-4.14-.23-1.39-1.03-2.34-1.96-2.87,.24-1.64,.05-3.52-.88-5.05,.89-.03,1.45-.51,.95-1.3-.72-1.13-2.84-2.31-4.27-3.02,.1-.06,.22-.12,.32-.18,.18-.12,.22-.35,.11-.53-.1-.16-.3-.2-.46-.14,3.76-3.49,9.01-13.55,11.81-25.34,3.65,3.06,7,5.15,9.62,6.05-.14,.03-.25,.14-.28,.28-.05,.2,.08,.41,.28,.46,.16,.04,.32,.05,.48,.09-.77,1.02-2.47,3.4-3.04,5.12-.75,2.25,1.11,2.17,2.61,1.41,.97-.48,1.25-.03,1.69,.33-.46,3.98-.59,9.21,1.11,12.64-.98,2.35-1.38,6.56,3.37,12.33,4.95,6.02,5.58,11.05,5.25,14.21-.36,3.37-1.9,5.69-3.22,6.73-.17,.13-.19,.37-.06,.54,.07,.1,.19,.15,.3,.15,.08,0,.17-.03,.24-.08,1.44-1.14,3.12-3.65,3.51-7.25,.35-3.31-.3-8.56-5.42-14.78-4.13-5.02-4.18-8.73-3.47-10.98,.89,1.34,2.09,2.19,3.58,2.52,3.14,.7,4.82-.59,5.54-1.42,1.04-1.2,1.37-2.9,.83-4.32-.49-1.3-1.62-2.16-3.12-2.36-2.12-.29-5.25,.95-6.9,3.82-1.31-3.16-1.2-7.78-.8-11.42,.09,.01,.16,.03,.26,.02,1.35-.08,1.65-2.03,3.15-.98,1.5,1.05,3.2,.98,2.84-.6-.38-1.73-2.52-4.17-3.96-5.67,.1-.02,.2-.03,.3-.05,.21-.05,.33-.25,.28-.46-.05-.21-.25-.34-.46-.28-.06,.01-.13,.02-.19,.03,4.35-1.62,11.41-7.34,18.35-15.47,1.64,14.28,7.71,26.94,12.3,30.94-.06,.03-.11,.06-.15,.12-.12,.17-.08,.41,.09,.54,.05,.04,.11,.07,.17,.11-.85,.52-2.73,1.72-3.63,2.77-.46,.54-.53,.94-.38,1.23-2.02,1.84-3.71,4.2-3.37,6.83,.21,1.57,.84,2.72,1.67,3.49-.82,1.05-1.08,2.35-.72,3.74,1.21,4.68-.25,6.42-1.23,7.03-.04,.03-.08,.05-.12,.07-.08-.14-.15-.26-.22-.35-.73-1.07-1.7-1.68-2.55-1.6-.51,.05-.92,.37-1.12,.88-.24,.59-.07,1.2,.45,1.63,.67,.56,1.9,.8,3.08,.43,.72,1.69,1.35,5.26-1.66,10.97-.1,.19-.03,.42,.16,.52,.06,.03,.12,.04,.18,.04,.14,0,.27-.07,.34-.2,3.14-5.96,2.46-9.78,1.68-11.63,.06-.04,.13-.07,.19-.11,1.15-.73,2.89-2.72,1.56-7.87-.36-1.37,.03-2.38,.58-3.08,.91,.59,1.96,.83,2.94,.74,1.5-.13,2.51-.94,2.47-1.98-.02-.49-.3-.88-.8-1.1-1.16-.5-3.19,.02-4.53,1.17-.06,.05-.11,.1-.16,.14-.68-.62-1.24-1.59-1.43-3.04-.31-2.36,1.34-4.56,3.28-6.28,.34,.1,.76,.12,1.17,.09,1.29-.11,.75,.93,1.73,1.26,.99,.33,1.76-.98,2.53,.21,.77,1.18,2,1.62,2.21,.39,.22-1.32-.57-3.61-1.16-5.1,.12,.02,.24,.06,.36,.08,.02,0,.04,0,.06,0,.19,0,.35-.14,.38-.33,.03-.19-.09-.35-.26-.41,9.41-.14,37.47-13.42,45.66-33.76,6.56-16.27-1.31-34.78-17.58-41.35ZM52.73,136.36c-.5,.7-1.24,.71-1.76,.41-.42-.24-.81-.77-.5-1.47,.45-1.02,1.37-1.38,2.17-1.38,.12,0,.23,0,.34,.02,.21,.03,.43,.08,.65,.16-.19,.91-.52,1.71-.91,2.25Zm22.85-12.3c1.47-2.64,4.28-3.77,6.18-3.52,1.22,.17,2.11,.83,2.5,1.87,.44,1.16,.16,2.56-.7,3.55-.61,.7-2.04,1.79-4.8,1.17-1.34-.3-2.42-1.09-3.2-2.35-.07-.1-.13-.21-.19-.32,.07-.14,.14-.27,.2-.4Zm20.84,21.5c-.4-.34-.27-.65-.23-.76,.1-.24,.26-.37,.49-.4,.03,0,.05,0,.08,0,.46,0,1.15,.38,1.76,1.27,.04,.06,.09,.13,.13,.21-.87,.23-1.77,.07-2.24-.32Zm6.2-10.94c1.22-1.04,2.95-1.39,3.73-1.05,.29,.13,.33,.3,.34,.43,.03,.59-.73,1.09-1.77,1.19-.64,.06-1.52-.06-2.33-.54,.01-.01,.02-.02,.03-.03Z"/><g><g><g><path class="e" d="M61.63,67.81c8.18,22.47-6.83,54.53-13.13,56.82-7.12,2.59-37.91-11.27-46.58-35.09-6-16.49,2.5-34.72,18.99-40.72,16.49-6,34.72,2.5,40.72,18.99Z"/><path class="e" d="M51.51,68.42c6.12,16.8,.05,34.59-11.35,38.74-9.73,3.54-28.46-5.11-34.87-22.72-4.44-12.19,1.85-25.67,14.04-30.1,12.19-4.44,26.95-.31,32.18,14.09Z"/><path class="e" d="M47.24,124.94s-1.05,3.15-1,4.98c.05,1.83,1.38,1.28,2.26,.34,.89-.94,1.18,.19,2.13-.22,.95-.41,.66-1.9,2.02-1.54,1.36,.36,2.57-.13,1.9-1.18-1.12-1.76-5.68-3.67-5.68-3.67l-1.64,1.29Z"/><path class="b" d="M14.1,63.43c2.18,.7,2.82,4.79,1.42,9.12-1.4,4.33-4.3,7.28-6.48,6.57-2.18-.7-2.82-4.78-1.42-9.12,1.4-4.33,4.3-7.27,6.47-6.57Z"/><path class="b" d="M10.77,83.29c1.32-.83,3.73,.62,5.38,3.25,1.65,2.63,1.92,5.43,.59,6.26-1.32,.83-3.73-.62-5.38-3.25-1.65-2.62-1.92-5.43-.6-6.26Z"/></g><path class="f" d="M46.85,125.46c-.19,0-.36-.14-.38-.34-.02-.21,.13-.4,.34-.42,1.2-.14,2.37-.56,3.38-1.23,.17-.11,.41-.07,.53,.11,.12,.18,.07,.41-.11,.53-1.11,.74-2.39,1.2-3.72,1.35-.01,0-.03,0-.04,0Z"/><path class="b" d="M61.6,156.55s-.09,0-.13-.02c-.2-.07-.3-.29-.22-.49,1.21-3.27-.38-6.09-4.99-8.87-2.84-1.71-1.98-4.37-1.22-6.72,.42-1.3,.86-2.65,.67-3.78-.17-1.01-.71-1.74-1.36-2.19-.22,.94-.58,1.77-.99,2.34-.77,1.08-1.97,1.08-2.76,.63-.89-.51-1.23-1.52-.82-2.45,.58-1.3,1.84-1.99,3.31-1.8,.22,.03,.45,.08,.68,.15,.18-1.52-.04-3.22-.92-4.53-1.8-2.67-4.31-3.88-4.33-3.89-.19-.09-.27-.32-.18-.51,.09-.19,.32-.27,.51-.18,.11,.05,2.72,1.3,4.64,4.15,1.06,1.57,1.27,3.56,1.02,5.28,.93,.53,1.73,1.49,1.96,2.87,.22,1.31-.25,2.75-.7,4.14-.77,2.38-1.44,4.43,.89,5.83,4.92,2.97,6.65,6.17,5.31,9.79-.06,.16-.2,.25-.36,.25Zm-8.95-22.63c-.81,0-1.72,.36-2.17,1.38-.31,.7,.07,1.23,.5,1.47,.52,.3,1.26,.28,1.76-.41,.39-.55,.72-1.34,.91-2.25-.22-.08-.44-.13-.65-.16-.11-.01-.23-.02-.34-.02Z"/></g><g><path class="b" d="M80.16,158.45c-.11,0-.23-.05-.3-.15-.13-.17-.1-.41,.06-.54,1.32-1.04,2.86-3.36,3.22-6.73,.34-3.16-.3-8.19-5.25-14.21-4.75-5.77-4.35-9.98-3.37-12.33-3.01-6.04-.29-17.72-.16-18.23,.05-.21,.25-.34,.46-.28,.21,.05,.33,.25,.28,.46-.03,.12-2.61,11.21-.14,17.17,1.65-2.87,4.78-4.11,6.9-3.82,1.49,.2,2.63,1.06,3.12,2.36,.54,1.42,.21,3.12-.83,4.32-.72,.83-2.4,2.12-5.54,1.42-1.48-.33-2.69-1.18-3.58-2.52-.71,2.25-.66,5.96,3.47,10.98,5.12,6.22,5.77,11.47,5.42,14.78-.39,3.61-2.07,6.11-3.51,7.25-.07,.05-.15,.08-.24,.08Zm-4.78-33.99c.06,.11,.12,.22,.19,.32,.79,1.26,1.86,2.05,3.2,2.35,2.75,.62,4.19-.47,4.8-1.17,.86-.99,1.13-2.38,.7-3.55-.39-1.04-1.28-1.71-2.5-1.87-1.9-.25-4.71,.89-6.18,3.52-.07,.12-.14,.26-.2,.4Z"/><g><path class="d" d="M115.45,41.22c0,31.03-32.53,63.45-41.22,63.45-9.83,0-41.22-30.57-41.22-63.45C33.01,18.46,51.46,0,74.23,0s41.22,18.46,41.22,41.22Z"/><path class="d" d="M102.84,37.47c0,23.2-15.28,42.19-31.03,42.19-13.43,0-32.43-18.86-32.43-43.17,0-16.83,13.65-30.48,30.48-30.48s32.99,11.59,32.99,31.46Z"/><path class="d" d="M72.55,104.48s-2.68,3.38-3.43,5.62c-.75,2.25,1.11,2.17,2.61,1.41,1.5-.75,1.35,.76,2.7,.68,1.35-.08,1.65-2.03,3.15-.98,1.5,1.05,3.2,.98,2.84-.6-.59-2.64-5.29-6.99-5.29-6.99l-2.58,.85Z"/><path class="b" d="M59.44,14.79c2.35,1.82,1.31,7.08-2.32,11.75-3.62,4.66-8.46,6.96-10.81,5.14-2.35-1.82-1.31-7.08,2.31-11.75,3.63-4.66,8.47-6.96,10.81-5.14Z"/><path class="b" d="M46.56,37.51c1.98-.43,4.27,2.42,5.12,6.35,.85,3.93-.07,7.46-2.05,7.89-1.98,.43-4.27-2.42-5.12-6.35-.85-3.93,.07-7.47,2.05-7.9Z"/></g><path class="f" d="M74.23,105.2c-.85,0-1.71-.1-2.54-.3-.21-.05-.33-.26-.28-.46,.05-.21,.25-.34,.46-.28,1.54,.37,3.18,.37,4.72,0,.21-.05,.41,.08,.46,.28,.05,.21-.08,.41-.28,.46-.83,.2-1.69,.3-2.54,.3Z"/></g><g><g><path class="c" d="M156.49,87.4c-8.94,22.18-41.54,35.98-47.75,33.47-7.03-2.83-20.66-33.73-11.18-57.23,6.56-16.27,25.07-24.15,41.34-17.59,16.27,6.56,24.15,25.07,17.58,41.35Z"/><path class="c" d="M148.56,81.09c-6.69,16.59-23.08,25.76-34.34,21.22-9.6-3.87-17.75-22.83-10.74-40.21,4.85-12.03,18.54-17.85,30.57-13,12.03,4.85,20.24,17.79,14.52,31.99Z"/><path class="c" d="M107.6,120.26s-2.89,1.64-4.07,3.03c-1.18,1.39,.17,1.87,1.46,1.77,1.29-.11,.75,.93,1.73,1.26,.99,.33,1.76-.98,2.53,.21,.77,1.18,2,1.62,2.21,.39,.34-2.06-1.77-6.52-1.77-6.52l-2.09-.14Z"/><path class="b" d="M124.07,52.27c1.15,1.98-1.1,5.44-5.04,7.73-3.94,2.29-8.06,2.54-9.21,.56-1.15-1.98,1.1-5.44,5.04-7.73,3.93-2.29,8.06-2.54,9.21-.56Z"/><path class="b" d="M108.32,64.8c1.54,.27,2.36,2.96,1.83,6.02-.53,3.05-2.2,5.32-3.74,5.05-1.54-.26-2.36-2.95-1.83-6.01,.52-3.05,2.2-5.32,3.74-5.06Z"/></g><path class="b" d="M97.7,158.11c-.06,0-.12-.01-.18-.04-.19-.1-.26-.33-.16-.52,3.01-5.71,2.37-9.27,1.66-10.97-1.18,.37-2.41,.13-3.08-.43-.52-.43-.69-1.04-.45-1.63,.2-.5,.61-.82,1.12-.88,.85-.08,1.82,.52,2.55,1.6,.06,.09,.14,.21,.22,.35,.04-.02,.08-.05,.12-.07,.98-.62,2.44-2.35,1.23-7.03-.36-1.39-.1-2.69,.72-3.74-.83-.77-1.47-1.92-1.67-3.49-.77-5.9,8.75-10.5,9.15-10.7,.19-.09,.42,0,.51,.18,.09,.19,0,.42-.18,.51-.1,.05-9.42,4.56-8.72,9.91,.19,1.45,.74,2.41,1.43,3.04,.05-.05,.11-.1,.16-.14,1.34-1.15,3.38-1.67,4.53-1.17,.49,.22,.78,.6,.8,1.1,.05,1.04-.97,1.85-2.47,1.98-.98,.09-2.03-.14-2.93-.74-.55,.7-.94,1.71-.58,3.08,1.33,5.15-.41,7.14-1.56,7.87-.06,.04-.13,.08-.19,.11,.78,1.85,1.46,5.67-1.68,11.63-.07,.13-.2,.2-.34,.2Zm-.92-13.71s-.05,0-.08,0c-.23,.03-.4,.16-.49,.4-.04,.11-.17,.42,.23,.76,.47,.39,1.37,.55,2.24,.32-.05-.08-.09-.15-.13-.21-.6-.89-1.3-1.27-1.76-1.27Zm5.82-9.75c.81,.47,1.69,.6,2.33,.54,1.04-.09,1.79-.6,1.77-1.19,0-.12-.05-.3-.34-.43-.78-.34-2.51,0-3.73,1.05-.01,0-.02,.02-.03,.03Z"/><path class="f" d="M110.71,121.8s-.04,0-.06,0c-1.32-.19-2.59-.71-3.67-1.48-.17-.12-.21-.36-.09-.54,.12-.17,.36-.21,.53-.09,.98,.7,2.14,1.17,3.33,1.34,.21,.03,.36,.22,.32,.43-.03,.19-.19,.33-.38,.33Z"/></g></g></svg>