<?xml version="1.0" encoding="UTF-8"?><svg id="a" xmlns="http://www.w3.org/2000/svg" viewBox="0 0 800 800"><defs><style>.b{fill:#fff;}.c{fill:#f55951;}</style></defs><circle class="c" cx="400" cy="400" r="400"/><g><path class="b" d="M527.31,174.14v451.72h-254.61V174.14h254.61m-189.62,37.82h125.11v-19h-125.11v19m-48.22,342.65h221.56V228.46h-221.56v326.15m110.78,55.71c4.95,0,10.3-1.7,15.5-5.65,13.32-17.47,1.16-36.7-15.5-36.7-4.96,0-10.32,1.71-15.53,5.68-13.28,17.47-1.12,36.67,15.53,36.67m142.07-451.18H257.69v481.72h284.61V159.14h0Zm-237.84,84.32h191.56v296.15h-191.56V243.46h0Zm91.05,340.97c1.65-.96,3.26-1.46,4.73-1.46,2.83,0,4.72,1.78,5.54,3.45,1.27,2.57,.45,5.27-.82,7.45-1.65,.95-3.25,1.45-4.72,1.45-2.83,0-4.72-1.78-5.54-3.44-1.27-2.57-.46-5.26,.81-7.45h0Z"/><path class="b" d="M415.5,604.67c-22.66,17.23-48.25-8.35-31.02-31.02,22.67-17.29,48.32,8.35,31.02,31.02Z"/></g></svg>