<?xml version="1.0" encoding="UTF-8"?><svg id="a" xmlns="http://www.w3.org/2000/svg" viewBox="0 0 800 800"><defs><style>.b{fill:#fff;}.c{fill:#f55951;}</style></defs><circle class="c" cx="400" cy="400" r="400"/><path class="b" d="M400,188.14l112.04,108.1,95.72,92.35h-40.8v225.22h-111.25v-152.91h-111.42v152.91h-111.25v-225.22h-40.8l95.72-92.35,112.04-108.1m0-16.95c-2.5,0-5.01,.93-6.94,2.8l-115.52,111.45-104.63,100.95c-6.47,6.25-2.05,17.2,6.94,17.2h38.19v225.22h141.25v-152.91h81.42v152.91h141.25v-225.22h38.19c9,0,13.42-10.95,6.94-17.2l-104.63-100.95-115.52-111.45c-1.94-1.87-4.44-2.8-6.94-2.8h0Z"/></svg>