<?xml version="1.0" encoding="UTF-8"?><svg id="a" xmlns="http://www.w3.org/2000/svg" viewBox="0 0 800 800"><defs><style>.b{fill:#fff;}.c{fill:#f55951;}</style></defs><circle class="c" cx="400" cy="400" r="400"/><path class="b" d="M612.89,509.73c4.09,0,7.43,3.33,7.43,7.43v5.93c0,42.44-34.52,76.96-76.96,76.96H256.13c-42.44,0-76.96-34.52-76.96-76.96v-5.93c0-4.09,3.33-7.43,7.43-7.43h426.29m0-15H186.6c-12.39,0-22.43,10.04-22.43,22.43v5.93c0,50.79,41.17,91.96,91.96,91.96h287.22c50.79,0,91.96-41.17,91.96-91.96v-5.93c0-12.39-10.04-22.43-22.43-22.43Z"/><path class="b" d="M606,421.95c7.89,0,14.31,6.42,14.31,14.31v16.8c0,7.89-6.42,14.31-14.31,14.31H193.48c-7.89,0-14.31-6.42-14.31-14.31v-16.8c0-7.89,6.42-14.31,14.31-14.31h412.52m0-15H193.48c-16.19,0-29.31,13.12-29.31,29.31v16.8c0,16.19,13.12,29.31,29.31,29.31h412.52c16.19,0,29.31-13.12,29.31-29.31v-16.8c0-16.19-13.12-29.31-29.31-29.31Z"/><path class="b" d="M399.74,176.31c61.04,0,116.72,18.98,156.79,53.45,20.13,17.32,35.82,38.04,46.64,61.58,11.38,24.76,17.14,52.25,17.14,81.71,0,4.09-3.33,7.43-7.43,7.43H186.6c-4.09,0-7.43-3.33-7.43-7.43,0-29.46,5.77-56.95,17.14-81.71,10.81-23.54,26.51-44.26,46.64-61.58,40.07-34.47,95.75-53.45,156.79-53.45m0-15h0c-130.1,0-235.57,81.64-235.57,211.74h0c0,12.39,10.04,22.43,22.43,22.43h426.29c12.39,0,22.43-10.04,22.43-22.43h0c0-130.1-105.47-211.74-235.57-211.74Z"/><path class="b" d="M275,236.46l-9.16,9.16c-2.9,2.9-2.9,7.6,0,10.5,2.9,2.9,7.6,2.9,10.5,0l9.16-9.16c2.9-2.9,2.9-7.6,0-10.5h0c-2.9-2.9-7.6-2.9-10.5,0Z"/><path class="b" d="M355.51,241.3l-9.16,9.16c-2.9,2.9-2.9,7.6,0,10.5s7.6,2.9,10.5,0l9.16-9.16c2.9-2.9,2.9-7.6,0-10.5-2.9-2.9-7.6-2.9-10.5,0Z"/><path class="b" d="M322.64,204.22l-9.16,9.16c-2.9,2.9-2.9,7.6,0,10.5,2.9,2.9,7.6,2.9,10.5,0l9.16-9.16c2.9-2.9,2.9-7.6,0-10.5-2.9-2.9-7.6-2.9-10.5,0Z"/><path class="b" d="M374.19,203.12l-9.16,9.16c-2.9,2.9-2.9,7.6,0,10.5h0c2.9,2.9,7.6,2.9,10.5,0l9.16-9.16c2.9-2.9,2.9-7.6,0-10.5s-7.6-2.9-10.5,0Z"/><path class="b" d="M524.48,236.46l9.16,9.16c2.9,2.9,2.9,7.6,0,10.5s-7.6,2.9-10.5,0l-9.16-9.16c-2.9-2.9-2.9-7.6,0-10.5h0c2.9-2.9,7.6-2.9,10.5,0Z"/><path class="b" d="M433.98,241.3l9.16,9.16c2.9,2.9,2.9,7.6,0,10.5s-7.6,2.9-10.5,0l-9.16-9.16c-2.9-2.9-2.9-7.6,0-10.5,2.9-2.9,7.6-2.9,10.5,0Z"/><path class="b" d="M476.84,204.22l9.16,9.16c2.9,2.9,2.9,7.6,0,10.5-2.9,2.9-7.6,2.9-10.5,0l-9.16-9.16c-2.9-2.9-2.9-7.6,0-10.5h0c2.9-2.9,7.6-2.9,10.5,0Z"/><path class="b" d="M425.29,203.12l9.16,9.16c2.9,2.9,2.9,7.6,0,10.5h0c-2.9,2.9-7.6,2.9-10.5,0l-9.16-9.16c-2.9-2.9-2.9-7.6,0-10.5,2.9-2.9,7.6-2.9,10.5,0Z"/></svg>