<?xml version="1.0" encoding="UTF-8"?><svg id="a" xmlns="http://www.w3.org/2000/svg" viewBox="0 0 800 800"><defs><style>.b{fill:#fff;}.c{fill:#f55951;}</style></defs><circle class="c" cx="400" cy="400" r="400"/><path class="b" d="M452.06,458.87c39.6,0,76.82,15.42,104.82,43.42,28,28,43.42,65.22,43.42,104.82v6.36H199.7v-6.36c0-39.6,15.42-76.82,43.42-104.82,28-28,65.22-43.42,104.82-43.42h104.11m0-15h-104.11c-90.15,0-163.24,73.08-163.24,163.24v21.36h430.59v-21.36c0-90.15-73.08-163.24-163.24-163.24Z"/><path class="b" d="M400,185.94c30.62,0,59.42,11.93,81.07,33.58,21.66,21.66,33.58,50.45,33.58,81.07s-11.93,59.42-33.58,81.07c-21.66,21.66-50.45,33.58-81.07,33.58s-59.42-11.93-81.07-33.58c-21.66-21.66-33.58-50.45-33.58-81.07s11.93-59.42,33.58-81.07c21.66-21.66,50.45-33.58,81.07-33.58m0-15c-71.61,0-129.65,58.05-129.65,129.65s58.05,129.65,129.65,129.65,129.65-58.05,129.65-129.65-58.05-129.65-129.65-129.65Z"/></svg>