<?xml version="1.0" encoding="UTF-8"?><svg id="a" xmlns="http://www.w3.org/2000/svg" viewBox="0 0 800 800"><defs><style>.b{fill:#fff;}.c{fill:#f55951;}.d{fill:none;}</style></defs><circle class="c" cx="400" cy="400" r="400"/><path class="b" d="M252.78,574.85h145.55v-105.83H252.78v105.83Zm15-90.83h115.55v75.83h-115.55v-75.83Z"/><g><rect class="d" x="193.74" y="190.42" width="412.51" height="63.89"/><path class="d" d="M442.77,621.93v-152.91h116.08v152.91h29.31v-190.59h-4.07c-2.73,.14-5.45,.14-8.17,0H225.29c-2.14,.09-4.28,.09-6.41,0h-7.06v190.59h230.94Z"/><rect class="d" x="457.77" y="484.02" width="86.08" height="137.91"/><path class="d" d="M547.86,269.31H254.56v18.41h2.75c96.85,0,193.7-.01,290.55-.02v-18.39Z"/><path class="b" d="M254.56,269.31h293.3v18.39c-96.85,0-193.7,.01-290.55,.02h321.36c-.37,0-.72-.02-1.1-.02h-17.16v-18.39h60.86v-93.89H178.74v93.89h63.28v18.41h12.54v-18.41Zm-60.82-15v-63.89h412.51v63.89H193.74Z"/><path class="b" d="M225.29,431.35h-6.41c2.13,.09,4.26,.09,6.41,0Z"/><path class="b" d="M588.17,621.93h-29.31v-152.91h-116.08v152.91H211.83v-190.59h-15v205.59h406.34v-205.59h-15v190.59Zm-44.31,0h-86.08v-137.91h86.08v137.91Z"/><path class="b" d="M584.1,431.35h-8.17c2.72,.14,5.44,.14,8.17,0Z"/></g><path class="b" d="M571.53,302.36c.37,0,.72,.01,1.07,.02h13.03l16.19,29.54c.09,.17,.19,.34,.29,.5,3.31,5.91,6.43,11.87,9.76,17.77,4.35,7.74,8.76,15.47,13.26,23.17,2.51,4.29,4.27,8.63,4.68,13.04,.01,.11,.02,.23,.03,.34,.04,.46,.05,.91,.06,1.37,0,.08,.01,.16,.01,.24,0,.02,0,.04,0,.06,0,.51-.02,1.02-.07,1.54-.03,.35-.08,.7-.12,1.05-.02,.12-.03,.24-.05,.37-.52,3.46-1.92,6.78-4.07,9.87-5.42,8.39-15,14.61-29.19,18.28h-.88c-7.36,1.95-15.52,3.04-24.13,3.04-27,0-49.71-10.69-56.46-25.23-6.74,14.54-29.46,25.23-56.46,25.23-31.14,0-56.59-14.23-58.39-32.17-.04,.1-.08,.19-.12,.29-2.04,17.8-27.38,31.88-58.35,31.88-27.09,0-49.87-10.76-56.53-25.37-6.66,14.61-29.44,25.37-56.53,25.37-9.4,0-18.27-1.3-26.14-3.6h-.94c-11.43-3.22-19.73-8.39-25.31-15.38-3.64-4.27-5.78-9.04-6.07-14.09,0-.05,0-.11,0-.16-.02-.32-.04-.65-.04-.97,0-.03,0-.06,0-.08-.02-2.61,.46-5.24,1.45-7.88,1.65-4.37,4.4-8.57,6.73-12.84,2.79-5.1,5.63-10.19,8.49-15.28,2.16-3.84,4.39-7.67,6.56-11.51,3.4-6.02,6.73-12.05,10.16-18.06,2.61-4.56,5.17-9.14,8.01-13.65l3.84-6.7h11.83c.41,0,.82,0,1.23,0,.81,0,1.61,0,2.42,0h169.33l142.52-.02c-30.47,0-60.95,0-91.42,0h120.29m0-15.01h-28.73s-.09,0-.14,0h-142.53l-154.71,.02h-15.73c-.43,0-.87,0-1.3,0s-.88,0-1.33,0h-11.73c-5.38,0-10.34,2.88-13.02,7.54l-3.68,6.43c-2.49,3.96-4.74,7.9-6.91,11.71l-1.26,2.2c-2.14,3.74-4.25,7.51-6.29,11.16-1.3,2.33-2.6,4.65-3.92,6.98-.99,1.76-2,3.51-3,5.26-1.2,2.09-2.4,4.19-3.58,6.28-2.75,4.89-5.69,10.14-8.58,15.43-.56,1.02-1.17,2.09-1.82,3.22-1.95,3.38-4.16,7.21-5.78,11.52-1.6,4.24-2.41,8.6-2.42,12.96,0,.1,0,.2,0,.3,0,.67,.03,1.23,.05,1.56v.1c0,.11,.02,.22,.02,.34,.46,8.1,3.73,15.97,9.47,22.77,7.63,9.47,18.67,16.29,32.82,20.27,.89,.25,1.8,.42,2.72,.5,8.99,2.43,18.54,3.67,28.42,3.67,15.28,0,29.86-2.96,42.14-8.56,5.43-2.48,10.25-5.39,14.38-8.67,4.13,3.29,8.95,6.2,14.38,8.67,12.29,5.6,26.86,8.56,42.14,8.56,17.41,0,34.19-3.95,47.24-11.11,4.19-2.3,7.93-4.89,11.18-7.72,3.2,2.78,6.87,5.32,10.98,7.6,13.09,7.24,29.94,11.23,47.46,11.23,15.23,0,29.76-2.94,42.02-8.5,5.45-2.47,10.29-5.39,14.43-8.68,4.15,3.29,8.98,6.2,14.43,8.68,12.26,5.56,26.79,8.5,42.02,8.5,9.04,0,17.84-1.04,26.19-3.09,.87-.07,1.73-.21,2.57-.43,17.5-4.53,30.25-12.75,37.9-24.44,3.43-4.99,5.6-10.37,6.44-15.99,.03-.22,.06-.44,.09-.65h0l.02-.14c.05-.39,.13-.96,.18-1.64,.07-.8,.1-1.62,.11-2.43,0-.13,0-.26,0-.39,0-.24,0-.47-.02-.71-.01-.67-.05-1.37-.1-2.06-.02-.23-.04-.43-.06-.62-.58-6.21-2.76-12.5-6.67-19.18-4.02-6.88-8.2-14.17-13.14-22.96-1.7-3.02-3.4-6.14-5.04-9.16-1.52-2.8-3.09-5.69-4.7-8.57l-.21-.37-.06-.11-16.14-29.45c-2.63-4.8-7.68-7.79-13.15-7.79h-13.02c-.35,0-.71-.02-1.08-.02h0Z"/></svg>